<?xml version="1.0" encoding="utf-8"?>
<!-- Generator: Adobe Illustrator 15.0.2, SVG Export Plug-In . SVG Version: 6.00 Build 0)  -->
<!DOCTYPE svg PUBLIC "-//W3C//DTD SVG 1.1//EN" "http://www.w3.org/Graphics/SVG/1.1/DTD/svg11.dtd">
<svg version="1.1" xmlns="http://www.w3.org/2000/svg" xmlns:xlink="http://www.w3.org/1999/xlink" x="0px" y="0px" width="500px"
	 height="100px" viewBox="0 0 500 100" enable-background="new 0 0 500 100" xml:space="preserve">
<g id="Layer_2" display="none">
	<rect display="inline" fill="#001B22" width="500" height="100"/>
</g>
<g id="Layer_1">
	<g>
		<path fill="#00E7FF" d="M45.449,23.312c-1.71-1.631-3.613-2.797-5.71-3.496s-4.235-1.049-6.409-1.049
			c-0.623,0-1.127,0.195-1.515,0.583c-0.39,0.39-0.583,0.894-0.583,1.515c0,0.623,0.193,1.127,0.583,1.515
			c0.388,0.389,0.892,0.583,1.515,0.583c2.252,0,4.544,0.544,6.875,1.631c2.331,1.089,3.496,2.604,3.496,4.545
			c-0.156,0.623,0.038,1.127,0.583,1.515c0.543,0.39,1.049,0.583,1.515,0.583c0.466,0,0.933-0.193,1.398-0.583
			c0.466-0.388,0.699-0.892,0.699-1.515C47.973,26.887,47.157,24.944,45.449,23.312z"/>
	</g>
	<g>
		<path fill="#00E7FF" d="M56.054,7.93c-3.03-2.252-6.566-4.155-10.605-5.71c-4.041-1.553-8.081-2.291-12.12-2.214
			c-4.041,0.078-8.082,0.815-12.12,2.214c-4.041,1.398-7.615,3.303-10.721,5.71c-3.108,2.409-5.634,5.477-7.575,9.207
			C0.971,20.865,0,24.868,0,29.139c0,6.759,2.252,12.586,6.759,17.48c1.941,2.176,3.534,4.079,4.778,5.71
			c1.242,1.632,2.524,3.69,3.846,6.177c1.32,2.487,2.058,4.817,2.214,6.991c-2.021,1.166-3.03,2.954-3.03,5.361
			c0,1.555,0.543,2.913,1.632,4.079c-1.089,1.165-1.632,2.563-1.632,4.194c0,2.255,0.971,4.003,2.914,5.245
			c-0.544,1.01-0.816,2.021-0.816,3.029c-0.078,2.021,0.583,3.572,1.981,4.662c1.398,1.087,3.106,1.631,5.127,1.631
			c0.699,1.786,1.981,3.301,3.846,4.545c1.865,1.242,3.768,1.824,5.71,1.748c1.941-0.078,3.805-0.661,5.593-1.748
			c1.787-1.089,3.106-2.604,3.963-4.545c1.941,0,3.612-0.544,5.011-1.631c1.398-1.09,2.098-2.641,2.098-4.662
			c0-1.009-0.312-2.02-0.933-3.029c1.941-1.242,2.914-2.99,2.914-5.245c0-1.631-0.544-3.029-1.631-4.194
			c1.087-1.166,1.631-2.524,1.631-4.079c0-2.407-1.01-4.195-3.03-5.361c0.233-2.252,0.97-4.583,2.214-6.991
			c1.242-2.407,2.524-4.467,3.846-6.177c1.32-1.708,2.952-3.613,4.895-5.71c4.429-4.895,6.643-10.721,6.643-17.48
			c0.233-4.117-0.699-8.117-2.797-12.003C61.647,13.252,59.084,10.184,56.054,7.93z M53.84,40.909
			c-0.466,0.39-1.127,1.089-1.981,2.098c-0.856,1.011-1.515,1.965-1.981,2.431C44.36,52.043,41.292,58,40.671,65h-14.8
			c-0.544-7-3.613-12.957-9.207-19.562l-1.981-2.323l-1.981-2.151c-2.954-3.418-4.429-7.369-4.429-11.797
			c0.077-3.106,0.854-5.995,2.331-8.637c1.475-2.64,3.418-4.861,5.827-6.649c2.407-1.787,5.087-3.149,8.041-4.082
			c2.952-0.933,5.903-1.4,8.857-1.4c2.951,0,5.903,0.465,8.856,1.398c2.952,0.932,5.632,2.292,8.041,4.078
			c2.407,1.788,4.35,4.002,5.827,6.642c1.475,2.642,2.214,5.517,2.214,8.624C58.268,33.568,56.792,37.492,53.84,40.909z"/>
	</g>
	<g>
		<path fill="#00E7FF" d="M91.26,93.311v-87.5h19.385c9.147,0,15.601,1.872,19.36,5.615s5.64,10.205,5.64,19.385v34.375
			c0,9.602-1.913,16.691-5.737,21.264c-3.825,4.574-10.278,6.861-19.36,6.861H91.26z M103.76,83.936h6.885
			c2.051,0,3.809-0.188,5.273-0.562c1.465-0.373,2.653-1.057,3.564-2.051c0.911-0.992,1.627-1.936,2.148-2.832
			c0.521-0.895,0.887-2.287,1.099-4.174c0.211-1.889,0.333-3.443,0.366-4.664c0.032-1.221,0.049-3.117,0.049-5.688
			c0-0.848,0-1.482,0-1.904V33.936c0-1.595-0.008-2.864-0.024-3.809c-0.017-0.944-0.065-2.059-0.146-3.345
			c-0.082-1.286-0.204-2.303-0.366-3.052c-0.163-0.749-0.391-1.587-0.684-2.515s-0.659-1.652-1.099-2.173s-0.977-1.066-1.611-1.636
			s-1.367-0.993-2.197-1.27s-1.799-0.505-2.905-0.684c-1.107-0.179-2.344-0.269-3.711-0.269h-6.641V83.936z"/>
		<path fill="#00E7FF" d="M156.934,94.189c-3.483,0-6.438-1.506-8.862-4.518c-2.425-3.01-3.638-6.404-3.638-10.18
			c0-3.027,0.513-5.779,1.538-8.252c1.025-2.475,2.107-4.451,3.247-5.934c1.139-1.48,3.043-3.01,5.713-4.59
			c2.669-1.578,4.688-2.66,6.055-3.246s3.743-1.547,7.129-2.881c0.586-0.229,1.025-0.408,1.318-0.537v-4.492
			c0-3.157-0.439-5.607-1.318-7.349s-2.523-2.612-4.932-2.612c-2.148,0-3.687,0.74-4.614,2.222s-1.457,3.523-1.587,6.128
			c-0.033,0.358-0.049,0.896-0.049,1.611h-12.5c0.065-5.989,1.741-10.759,5.029-14.307c3.288-3.548,7.861-5.322,13.721-5.322
			c5.827,0,10.408,1.799,13.745,5.396c3.336,3.597,5.005,8.342,5.005,14.233v28.125c0,6.51,0.537,11.719,1.611,15.625h-12.451
			l-1.66-9.375c-0.651,1.301-1.18,2.311-1.587,3.027c-0.407,0.715-1.001,1.604-1.782,2.66c-0.781,1.059-1.562,1.873-2.344,2.441
			c-0.781,0.57-1.758,1.066-2.93,1.49C159.62,93.977,158.333,94.189,156.934,94.189z M163.184,83.936
			c0.879,0,1.733-0.262,2.563-0.781c0.83-0.521,1.457-1.025,1.88-1.514c0.423-0.488,0.944-1.141,1.562-1.953
			c0.098-0.164,0.179-0.277,0.244-0.342V62.061c-0.521,0.357-1.384,0.91-2.588,1.66c-1.205,0.748-2.165,1.359-2.881,1.83
			c-0.716,0.473-1.579,1.123-2.588,1.953c-1.009,0.83-1.791,1.629-2.344,2.393c-0.554,0.766-1.042,1.701-1.465,2.809
			c-0.423,1.105-0.635,2.262-0.635,3.467C156.934,81.348,159.017,83.936,163.184,83.936z"/>
		<path fill="#00E7FF" d="M192.676,93.311v-62.5h12.5v8.35c1.27-2.474,3.117-4.631,5.542-6.47c2.425-1.839,5.119-2.759,8.081-2.759
			c0.098,0,0.765,0.065,2.001,0.195v13.818c-2.311-0.911-4.622-1.367-6.933-1.367c-2.604,0-4.704,0.781-6.299,2.344
			c-1.595,1.562-2.393,3.63-2.393,6.201v42.188H192.676z"/>
		<path fill="#00E7FF" d="M226.514,93.311v-87.5h12.5v48.096l15.625-23.096h12.5l-14.014,21.826l14.014,40.674h-12.5l-9.375-30.225
			l-6.25,8.35v21.875H226.514z"/>
		<path fill="#00E7FF" d="M294.287,93.311v-87.5h17.285l12.402,66.992l12.402-66.992h17.285v87.5h-12.5V24.268l-12.5,69.043h-9.375
			l-12.5-69.043v69.043H294.287z"/>
		<path fill="#00E7FF" d="M397.607,88.33c-2.897,3.906-7.699,5.859-14.404,5.859c-6.706,0-11.508-1.953-14.404-5.859
			c-2.897-3.906-4.346-9.539-4.346-16.895v-18.75c0-7.356,1.448-12.988,4.346-16.895c2.896-3.906,7.698-5.859,14.404-5.859
			c6.705,0,11.507,1.953,14.404,5.859c2.896,3.906,4.346,9.538,4.346,16.895v18.75C401.953,78.791,400.504,84.424,397.607,88.33z
			 M380.884,83.545c0.667,0.26,1.44,0.391,2.319,0.391s1.651-0.131,2.319-0.391c0.667-0.262,1.221-0.578,1.66-0.953
			c0.439-0.373,0.806-0.928,1.099-1.66s0.521-1.375,0.684-1.928c0.162-0.555,0.276-1.352,0.342-2.393
			c0.064-1.043,0.105-1.863,0.122-2.467c0.016-0.602,0.024-1.506,0.024-2.709v-18.75c0-1.204-0.009-2.107-0.024-2.71
			c-0.017-0.603-0.058-1.424-0.122-2.466c-0.065-1.042-0.18-1.839-0.342-2.393c-0.163-0.554-0.391-1.196-0.684-1.929
			s-0.659-1.286-1.099-1.66s-0.993-0.691-1.66-0.952c-0.668-0.261-1.44-0.391-2.319-0.391s-1.652,0.13-2.319,0.391
			c-0.668,0.261-1.221,0.578-1.66,0.952s-0.806,0.928-1.099,1.66s-0.521,1.375-0.684,1.929c-0.163,0.554-0.277,1.351-0.342,2.393
			c-0.065,1.042-0.106,1.863-0.122,2.466c-0.017,0.603-0.024,1.506-0.024,2.71v18.75c0,1.203,0.008,2.107,0.024,2.709
			c0.016,0.604,0.057,1.424,0.122,2.467c0.064,1.041,0.179,1.838,0.342,2.393c0.162,0.553,0.391,1.195,0.684,1.928
			s0.659,1.287,1.099,1.66C379.663,82.967,380.216,83.283,380.884,83.545z"/>
		<path fill="#00E7FF" d="M426.807,94.189c-2.768,0-5.185-0.781-7.251-2.344c-2.067-1.562-3.662-3.68-4.785-6.348
			c-1.123-2.67-1.962-5.445-2.515-8.326c-0.554-2.881-0.896-5.98-1.025-9.301c-0.065-1.531-0.065-5.273,0-11.23
			c0.064-2.148,0.162-4.094,0.293-5.835c0.13-1.741,0.35-3.557,0.659-5.444c0.309-1.888,0.699-3.557,1.172-5.005
			c0.472-1.448,1.099-2.849,1.88-4.199s1.692-2.466,2.734-3.345c1.041-0.879,2.295-1.579,3.76-2.1s3.092-0.781,4.883-0.781
			c1.399,0,2.71,0.188,3.931,0.562s2.384,0.96,3.491,1.758c1.106,0.798,1.993,1.506,2.661,2.124
			c0.667,0.618,1.538,1.497,2.612,2.637V5.859h12.5v87.451h-12.5v-5.664c-1.889,1.953-3.809,3.531-5.762,4.736
			C431.592,93.586,429.346,94.189,426.807,94.189z M429.932,83.936c3.027,0,6.152-0.652,9.375-1.953V42.676
			c-2.8-1.66-5.925-2.49-9.375-2.49c-1.237,0-2.279,0.301-3.125,0.903c-0.847,0.603-1.481,1.481-1.904,2.637
			c-0.424,1.155-0.732,2.344-0.928,3.564s-0.31,2.661-0.342,4.321c-0.131,7.291-0.131,13.068,0,17.334
			c0.032,2.082,0.146,3.938,0.342,5.566c0.195,1.627,0.513,3.197,0.952,4.711s1.082,2.678,1.929,3.492
			C427.701,83.527,428.727,83.936,429.932,83.936z"/>
		<path fill="#00E7FF" d="M481.152,94.189c-3.027,0-5.656-0.521-7.886-1.562c-2.23-1.043-4.004-2.4-5.322-4.078
			c-1.318-1.676-2.385-3.824-3.198-6.445c-0.814-2.619-1.376-5.24-1.685-7.861c-0.31-2.619-0.497-5.672-0.562-9.154
			c-0.098-2.734-0.098-5.469,0-8.203c0.098-3.256,0.317-6.145,0.659-8.667s0.936-4.973,1.782-7.349
			c0.846-2.376,1.944-4.329,3.296-5.859c1.351-1.53,3.125-2.759,5.322-3.687s4.761-1.392,7.69-1.392c2.669,0,5.021,0.35,7.056,1.05
			c2.034,0.7,3.727,1.758,5.078,3.174c1.351,1.416,2.474,2.986,3.369,4.712c0.895,1.726,1.57,3.816,2.026,6.274
			c0.455,2.458,0.772,4.875,0.952,7.251c0.179,2.375,0.269,5.109,0.269,8.203v1.465h-25v3.125c0,0.422,0,1.09,0,2.002
			c-0.065,1.203-0.073,2.449-0.024,3.734c0.049,1.287,0.105,2.547,0.171,3.785c0.064,1.236,0.244,2.416,0.537,3.539
			s0.65,2.107,1.074,2.955c0.423,0.846,1.017,1.514,1.782,2.002c0.765,0.488,1.668,0.732,2.71,0.732
			c1.302,0,2.376-0.252,3.223-0.758c0.846-0.504,1.473-1.262,1.88-2.27c0.406-1.01,0.691-2.02,0.854-3.027
			c0.162-1.01,0.26-2.279,0.293-3.809v-2.637h12.402v2.49c-0.293,6.672-1.938,11.719-4.932,15.137
			C491.976,92.48,487.369,94.189,481.152,94.189z M475,55.811h12.402v-3.76c-0.033-1.66-0.131-3.108-0.293-4.346
			c-0.163-1.237-0.448-2.474-0.854-3.711c-0.407-1.237-1.034-2.181-1.88-2.832c-0.847-0.651-1.889-0.977-3.125-0.977
			c-1.27,0-2.336,0.342-3.198,1.025c-0.863,0.684-1.498,1.668-1.904,2.954c-0.407,1.286-0.692,2.547-0.854,3.784
			c-0.163,1.237-0.261,2.718-0.293,4.443V55.811z"/>
	</g>
</g>
</svg>
